<svg xmlns="http://www.w3.org/2000/svg" viewBox="0 0 256 256" role="img" aria-label="Macho Cat">
  <defs>
    <linearGradient id="fur" x1="48" y1="28" x2="205" y2="232" gradientUnits="userSpaceOnUse">
      <stop stop-color="#DDF7FF"/>
      <stop offset="0.48" stop-color="#63C7E8"/>
      <stop offset="1" stop-color="#28769F"/>
    </linearGradient>
    <linearGradient id="body" x1="128" y1="132" x2="128" y2="240" gradientUnits="userSpaceOnUse">
      <stop stop-color="#49D9C0"/>
      <stop offset="1" stop-color="#087F83"/>
    </linearGradient>
    <filter id="shadow" x="-30%" y="-30%" width="160%" height="170%">
      <feDropShadow dx="0" dy="8" stdDeviation="7" flood-color="#071D36" flood-opacity=".42"/>
    </filter>
  </defs>
  <g filter="url(#shadow)" stroke="#0B2945" stroke-linecap="round" stroke-linejoin="round">
    <path d="M65 74 52 21l49 30M191 74l13-53-49 30" fill="url(#fur)" stroke-width="10"/>
    <path d="m67 56-7-22 25 18m104 4 7-22-25 18" fill="#F39BC2" stroke-width="5"/>
    <path d="M92 146c-31 4-52 20-63 51-6 18 4 33 22 32 15-1 24-12 31-31l20 36h52l20-36c7 19 16 30 31 31 18 1 28-14 22-32-11-31-32-47-63-51" fill="url(#body)" stroke-width="11"/>
    <path d="M88 183c-14 3-24 13-29 29m109-29c14 3 24 13 29 29" fill="none" stroke="#B9FFF1" stroke-width="7"/>
    <path d="M82 55c20-18 72-18 92 0 22 19 24 69-1 91-21 19-69 19-90 0-25-22-23-72-1-91Z" fill="url(#fur)" stroke-width="11"/>
    <path d="M99 89c7-6 15-6 22 0m14 0c7-6 15-6 22 0" fill="none" stroke-width="7"/>
    <ellipse cx="110" cy="98" rx="6" ry="8" fill="#0B2945" stroke="none"/>
    <ellipse cx="146" cy="98" rx="6" ry="8" fill="#0B2945" stroke="none"/>
    <path d="m128 111-8 7 8 6 8-6-8-7Z" fill="#F17EAA" stroke-width="4"/>
    <path d="M128 124c-2 12-17 15-25 6m25-6c2 12 17 15 25 6" fill="none" stroke-width="5"/>
    <path d="M88 112 48 103m42 23-42 8m120-22 40-9m-42 23 42 8" fill="none" stroke="#0B2945" stroke-width="4"/>
    <path d="M106 157c5 8 10 12 22 12s17-4 22-12m-40 25 18 17 18-17" fill="none" stroke="#B9FFF1" stroke-width="6"/>
    <path d="M92 229c7-18 18-27 36-27s29 9 36 27" fill="none" stroke="#0B2945" stroke-width="8"/>
  </g>
</svg>
