<svg width="96" height="96" viewBox="0 0 96 96" fill="none" xmlns="http://www.w3.org/2000/svg">
  <rect x="14" y="18" width="68" height="60" rx="16" fill="#7C2D12"/>
  <path d="M30 42C25.58 42 22 38.42 22 34C22 29.58 25.58 26 30 26H43C52.39 26 60 33.61 60 43V54C60 62.84 52.84 70 44 70H33C26.92 70 22 65.08 22 59C22 52.92 26.92 48 33 48H35C32.24 48 30 45.76 30 43V42Z" fill="#FFE7C2"/>
  <path d="M52 28H62C68.63 28 74 33.37 74 40C74 46.63 68.63 52 62 52H60V60C60 65.52 55.52 70 50 70H44C51.73 70 58 63.73 58 56V43C58 36.93 55.69 31.39 52 28Z" fill="#FDBA74"/>
  <path d="M34 37H48M31 48H53M35 59H50M61 38H69M62 48H70" stroke="#C2410C" stroke-width="4" stroke-linecap="round"/>
  <path d="M18 82H78" stroke="#451A03" stroke-width="8" stroke-linecap="round"/>
  <circle cx="71" cy="23" r="5" fill="#FF8A23"/>
  <circle cx="79" cy="33" r="3" fill="#FF8A23"/>
</svg>
