<svg xmlns="http://www.w3.org/2000/svg" viewBox="0 0 96 96">
  <rect width="96" height="96" rx="18" fill="#fef3c7"/>
  <path d="M48 14c15 8 25 20 25 35 0 18-11 31-25 31S23 67 23 49c0-15 10-27 25-35z" fill="#fb923c" stroke="#7c2d12" stroke-width="4"/>
  <path d="M48 25c9 5 15 12 15 22 0 11-7 19-15 19s-15-8-15-19c0-10 6-17 15-22z" fill="#ffedd5" stroke="#9a3412" stroke-width="4"/>
  <path d="M48 36c5 3 8 7 8 12 0 6-4 10-8 10s-8-4-8-10c0-5 3-9 8-12z" fill="#c2410c"/>
  <path d="M17 24l12 8M79 24l-12 8M18 74l12-8M78 74l-12-8" stroke="#7c2d12" stroke-width="5" stroke-linecap="round"/>
  <text x="48" y="92" text-anchor="middle" font-family="monospace" font-size="8" font-weight="900" fill="#7c2d12">FRACTAL</text>
</svg>
