<svg xmlns="http://www.w3.org/2000/svg" viewBox="0 0 160 160">
  <rect width="160" height="160" rx="34" fill="#FAE8FF"/>
  <path d="M54 54c4-18 22-28 39-22 18 6 27 22 23 40 11 10 10 28-2 39-13 12-33 10-43-4-16 5-33-5-37-21-4-14 4-27 20-32Z" fill="#A21CAF"/>
  <path d="M60 66c18-9 35-3 50 18M54 88c22-5 40 2 53 21" fill="none" stroke="#F5D0FE" stroke-width="7" stroke-linecap="round"/>
  <path d="M74 36v25M100 42 86 66M47 101l23-13" stroke="#701A75" stroke-width="6" stroke-linecap="round"/>
  <circle cx="80" cy="84" r="8" fill="#FDF4FF"/>
</svg>
