<svg width="120" height="160" viewBox="0 0 120 160" fill="none" xmlns="http://www.w3.org/2000/svg">
<!-- 背景 -->
<rect width="120" height="160" fill="transparent"/>

<!-- 顔 -->
<circle cx="60" cy="25" r="12" fill="#F5DEB3"/>

<!-- 首 -->
<rect x="56" y="35" width="8" height="8" fill="#F5DEB3"/>

<!-- 胴体 -->
<ellipse cx="60" cy="60" rx="18" ry="25" fill="#2F4F4F"/>

<!-- 腕（左右） -->
<ellipse cx="40" cy="55" rx="8" ry="20" fill="#F5DEB3"/>
<ellipse cx="80" cy="55" rx="8" ry="20" fill="#F5DEB3"/>

<!-- 上腕の筋肉 -->
<ellipse cx="40" cy="50" rx="10" ry="15" fill="#CD853F"/>
<ellipse cx="80" cy="50" rx="10" ry="15" fill="#CD853F"/>

<!-- 脚 -->
<rect x="50" y="85" width="8" height="35" fill="#2F4F4F"/>
<rect x="62" y="85" width="8" height="35" fill="#2F4F4F"/>

<!-- 足 -->
<ellipse cx="54" cy="125" rx="6" ry="4" fill="#8B4513"/>
<ellipse cx="66" cy="125" rx="6" ry="4" fill="#8B4513"/>

<!-- 顔の詳細 -->
<circle cx="56" cy="22" r="1.5" fill="#000"/>
<circle cx="64" cy="22" r="1.5" fill="#000"/>
<path d="M58 28 Q60 30 62 28" stroke="#000" stroke-width="1" fill="none"/>

<!-- 髪 -->
<path d="M48 18 Q60 12 72 18 Q68 15 60 14 Q52 15 48 18" fill="#8B4513"/>

<!-- 腹筋 -->
<rect x="56" y="50" width="8" height="3" rx="1" fill="#4A4A4A"/>
<rect x="56" y="56" width="8" height="3" rx="1" fill="#4A4A4A"/>
<rect x="56" y="62" width="8" height="3" rx="1" fill="#4A4A4A"/>
</svg>